<svg id="Group_43" data-name="Group 43" xmlns="http://www.w3.org/2000/svg" xmlns:xlink="http://www.w3.org/1999/xlink" width="20.337" height="26.719" viewBox="0 0 20.337 26.719">
  <defs>
    <clipPath id="clip-path">
      <rect id="Rectangle_28" data-name="Rectangle 28" width="20.337" height="26.719" fill="#445065"/>
    </clipPath>
  </defs>
  <g id="Group_42" data-name="Group 42" clip-path="url(#clip-path)">
    <path id="Path_41" data-name="Path 41" d="M19.673.687a1.119,1.119,0,0,0-1.217.185L16.7,2.425a.126.126,0,0,1-.167,0L14.151.291a1.136,1.136,0,0,0-1.516,0L10.253,2.422a.127.127,0,0,1-.168,0L7.7.291a1.136,1.136,0,0,0-1.516,0L3.8,2.424a.127.127,0,0,1-.168,0L1.878.873A1.128,1.128,0,0,0,0,1.724V25a1.129,1.129,0,0,0,1.88.851L3.634,24.3a.125.125,0,0,1,.167,0L6.186,26.43h0a1.136,1.136,0,0,0,1.516,0L10.085,24.3h0a.127.127,0,0,1,.168,0l2.383,2.131h0a1.136,1.136,0,0,0,1.516,0L16.538,24.3a.126.126,0,0,1,.168,0l1.754,1.552h0A1.128,1.128,0,0,0,20.337,25V1.724A1.118,1.118,0,0,0,19.673.687ZM4.182,9.066h6.289a.505.505,0,1,1,0,1.011H4.182a.505.505,0,1,1,0-1.011Zm11.974,8.589H4.182a.505.505,0,1,1,0-1.011H16.156a.505.505,0,0,1,0,1.011m0-3.789H4.182a.505.505,0,1,1,0-1.011H16.156a.505.505,0,0,1,0,1.011" transform="translate(0 -0.001)" fill="#445065"/>
  </g>
</svg>
