<svg id="ok" xmlns="http://www.w3.org/2000/svg" xmlns:xlink="http://www.w3.org/1999/xlink" width="13.999" height="9.678" viewBox="0 0 13.999 9.678">
  <defs>
    <clipPath id="clip-path">
      <rect id="Rectangle_15" data-name="Rectangle 15" width="13.999" height="9.678" fill="none"/>
    </clipPath>
  </defs>
  <g id="Group_12" data-name="Group 12" clip-path="url(#clip-path)">
    <path id="Path_2" data-name="Path 2" d="M1.312,3.629H9.266L7.435,2.107l0,0A1.142,1.142,0,0,1,7.34.4,1.386,1.386,0,0,1,9.187.31l0,0,4.375,3.632,0,0a1.135,1.135,0,0,1,.11,1.692,1.253,1.253,0,0,1-.11.1l0,0L9.19,9.372l0,0a1.386,1.386,0,0,1-1.847-.09,1.143,1.143,0,0,1,.1-1.7l0,0L9.266,6.05H1.312A1.265,1.265,0,0,1,0,4.839,1.265,1.265,0,0,1,1.312,3.629" transform="translate(0 -0.001)" fill="#fff"/>
  </g>
</svg>
