<?xml version="1.0" standalone="no"?>
<!DOCTYPE svg PUBLIC "-//W3C//DTD SVG 20010904//EN"
 "http://www.w3.org/TR/2001/REC-SVG-20010904/DTD/svg10.dtd">
<svg version="1.0" xmlns="http://www.w3.org/2000/svg"
 width="102.000000pt" height="102.000000pt" viewBox="0 0 102.000000 102.000000"
 preserveAspectRatio="xMidYMid meet">

<g transform="translate(0.000000,102.000000) scale(0.100000,-0.100000)"
fill="#000000" stroke="none">
<path d="M557 874 c-32 -32 -41 -71 -28 -121 14 -51 49 -83 100 -90 35 -5 44
-2 71 25 25 25 30 38 30 77 0 25 -7 59 -14 74 -33 63 -113 81 -159 35z m126
-46 c24 -28 21 -64 -8 -96 l-25 -27 0 26 c0 14 -9 34 -20 44 -20 18 -21 18
-14 1 5 -13 3 -17 -7 -14 -13 4 -22 60 -14 86 7 19 65 6 88 -20z m-119 -104
c3 -8 2 -12 -4 -9 -6 3 -10 10 -10 16 0 14 7 11 14 -7z"/>
<path d="M167 605 c-28 -162 44 -401 149 -494 76 -67 143 -94 243 -99 47 -2
84 -2 81 1 -3 2 -43 14 -89 26 -99 24 -162 62 -231 137 -86 95 -124 199 -138
374 -6 82 -9 89 -15 55z"/>
<path d="M7 584 c-12 -12 -8 -124 8 -199 8 -38 29 -99 47 -135 34 -70 121
-166 177 -194 l33 -18 -25 34 c-52 67 -207 358 -191 358 2 0 -2 13 -11 30 -8
16 -18 52 -23 80 -4 29 -10 48 -15 44z"/>
<path d="M768 500 c-4 -27 -2 -30 21 -29 17 1 20 3 9 6 -10 2 -18 8 -18 13 0
5 8 11 18 13 14 4 14 5 -3 7 l-20 1 20 9 c19 8 19 9 -1 9 -17 1 -23 -6 -26
-29z"/>
<path d="M828 523 c6 -2 12 -16 12 -29 0 -34 17 -30 22 6 4 27 2 30 -21 29
-14 0 -20 -3 -13 -6z"/>
<path d="M561 418 c-67 -46 -92 -151 -53 -228 48 -97 179 -105 237 -16 24 36
39 106 25 120 -5 5 -10 18 -10 27 0 10 -15 34 -34 53 -18 20 -30 38 -27 41 10
11 -18 21 -62 23 -31 2 -52 -4 -76 -20z m112 -5 c-7 -2 -21 -2 -30 0 -10 3 -4
5 12 5 17 0 24 -2 18 -5z m-55 -58 c-2 -12 -6 -11 -16 6 -8 11 -9 18 -3 14 6
-3 11 0 12 7 0 10 2 10 6 1 2 -7 3 -20 1 -28z m52 18 c0 -14 2 -15 9 -4 5 7
14 10 20 6 9 -5 9 -11 -1 -23 -11 -13 -10 -15 11 -9 18 4 21 3 12 -6 -17 -17
-14 -27 12 -37 16 -6 17 -9 5 -9 -9 -1 -19 -9 -21 -18 -3 -12 -5 -9 -6 8 -2
38 -36 78 -61 72 -15 -4 -20 0 -20 16 0 14 6 21 20 21 12 0 20 -7 20 -17z
m-78 -41 c-7 -2 -10 -8 -6 -13 3 -5 1 -9 -5 -9 -14 0 -23 18 -16 30 3 5 13 6
22 3 11 -4 13 -8 5 -11z m-12 -53 c0 -10 -7 -19 -15 -19 -9 0 -15 9 -15 25 0
18 4 23 15 19 8 -4 15 -15 15 -25z m10 -40 c0 -5 14 -15 30 -24 32 -16 54 -11
80 19 12 15 50 23 50 10 0 -13 -24 -51 -49 -76 -35 -37 -81 -37 -121 0 -17 15
-34 41 -39 58 -8 29 -8 30 20 26 16 -2 29 -8 29 -13z"/>
<path d="M710 412 c0 -5 7 -15 15 -22 8 -7 15 -8 15 -2 0 5 -7 15 -15 22 -8 7
-15 8 -15 2z"/>
<path d="M450 243 c0 -65 27 -123 72 -156 32 -24 108 -29 116 -9 3 10 -3 13
-20 11 -13 -2 -38 5 -54 15 -36 23 -84 73 -76 80 3 3 0 6 -6 6 -6 0 -9 7 -6
15 4 8 1 15 -5 15 -8 0 -9 13 -5 40 4 27 3 40 -5 40 -7 0 -11 -21 -11 -57z"/>
</g>
</svg>
